<svg width="18" height="18" viewBox="0 0 18 18" fill="none" xmlns="http://www.w3.org/2000/svg">
<path d="M16.8322 14.2984V8.86682C16.8322 8.34369 16.8317 8.08198 16.7681 7.83855C16.7117 7.62283 16.6192 7.41868 16.494 7.23421C16.3527 7.02604 16.1562 6.85341 15.7625 6.50893L11.0632 2.39701C10.3322 1.75743 9.96674 1.4378 9.55543 1.31616C9.193 1.20898 8.8067 1.20898 8.44427 1.31616C8.03327 1.43771 7.66832 1.75704 6.93847 2.39565L2.23758 6.50893C1.84388 6.85342 1.64749 7.02604 1.50618 7.23421C1.38095 7.41869 1.2877 7.62283 1.23133 7.83855C1.16772 8.08198 1.16772 8.34368 1.16772 8.86682V14.2984C1.16772 15.2107 1.16772 15.6667 1.31677 16.0266C1.5155 16.5063 1.89643 16.888 2.37621 17.0867C2.73605 17.2358 3.19222 17.2358 4.10455 17.2358C5.01689 17.2358 5.47357 17.2358 5.8334 17.0867C6.31318 16.888 6.69401 16.5064 6.89274 16.0267C7.04179 15.6668 7.04189 15.2107 7.04189 14.2983V13.3193C7.04189 12.2379 7.91854 11.3612 8.99994 11.3612C10.0813 11.3612 10.958 12.2379 10.958 13.3193V14.2983C10.958 15.2107 10.958 15.6668 11.107 16.0267C11.3058 16.5064 11.6867 16.888 12.1665 17.0867C12.5263 17.2358 12.9825 17.2358 13.8948 17.2358C14.8072 17.2358 15.2638 17.2358 15.6237 17.0867C16.1035 16.888 16.4843 16.5063 16.683 16.0266C16.8321 15.6667 16.8322 15.2107 16.8322 14.2984Z" stroke="var(--bg-gray)" stroke-width="1.25" stroke-linecap="round" stroke-linejoin="round"/>
</svg>
