<svg width="18" height="18" viewBox="0 0 18 18" fill="none" xmlns="http://www.w3.org/2000/svg">
<path d="M8.75192 1.36033C8.45122 1.48489 8.18165 1.75446 7.64256 2.29355C7.10358 2.83253 6.8339 3.10221 6.70936 3.40287C6.54329 3.80381 6.54329 4.25434 6.70936 4.65528C6.83392 4.95598 7.10347 5.22554 7.64258 5.76465C8.18138 6.30345 8.45128 6.57335 8.7519 6.69787C9.15284 6.86394 9.60337 6.86394 10.0043 6.69787C10.305 6.57331 10.5746 6.30376 11.1137 5.76465C11.6528 5.22554 11.9215 4.95598 12.0461 4.65528C12.2122 4.25434 12.2122 3.80381 12.0461 3.40287C11.9215 3.10217 11.6528 2.83266 11.1137 2.29355C10.5746 1.75445 10.305 1.48489 10.0043 1.36033C9.60337 1.19426 9.15286 1.19426 8.75192 1.36033Z" stroke="var(--bg-gray)" stroke-width="1.25" stroke-linecap="round" stroke-linejoin="round"/>
<path d="M3.54505 6.56681C3.24434 6.69137 2.97479 6.96093 2.43568 7.50003C1.89672 8.03899 1.62702 8.30869 1.50248 8.60935C1.33641 9.01029 1.33641 9.46082 1.50248 9.86176C1.62704 10.1625 1.8966 10.432 2.4357 10.9711C2.9745 11.5099 3.24441 11.7798 3.54502 11.9043C3.94596 12.0704 4.39649 12.0704 4.79743 11.9043C5.09813 11.7798 5.36769 11.5102 5.9068 10.9711C6.4459 10.432 6.71467 10.1625 6.83922 9.86176C7.00529 9.46082 7.00529 9.01029 6.83922 8.60935C6.71467 8.30865 6.44591 8.03914 5.9068 7.50003C5.36769 6.96092 5.09813 6.69137 4.79743 6.56681C4.39649 6.40074 3.94598 6.40074 3.54505 6.56681Z" stroke="var(--bg-gray)" stroke-width="1.25" stroke-linecap="round" stroke-linejoin="round"/>
<path d="M12.8494 7.50003C12.3105 8.039 12.0408 8.30869 11.9162 8.60935C11.7502 9.01029 11.7502 9.46082 11.9162 9.86176C12.0408 10.1625 12.3104 10.432 12.8495 10.9711C13.3883 11.5099 13.6582 11.7798 13.9588 11.9043C14.3597 12.0704 14.8103 12.0704 15.2112 11.9043C15.5119 11.7798 15.7814 11.5102 16.3206 10.9711C16.8597 10.432 17.1284 10.1625 17.253 9.86176C17.4191 9.46082 17.4191 9.01029 17.253 8.60935C17.1284 8.30865 16.8597 8.03913 16.3206 7.50003C15.7814 6.96093 15.5119 6.69137 15.2112 6.56681C14.8103 6.40074 14.3597 6.40074 13.9588 6.56681C13.6581 6.69137 13.3885 6.96093 12.8494 7.50003Z" stroke="var(--bg-gray)" stroke-width="1.25" stroke-linecap="round" stroke-linejoin="round"/>
<path d="M8.75192 11.7737C8.45122 11.8982 8.18166 12.1678 7.64256 12.7069C7.1036 13.2459 6.8339 13.5156 6.70936 13.8162C6.54329 14.2172 6.54329 14.6677 6.70936 15.0686C6.83392 15.3693 7.10348 15.6389 7.64258 16.178C8.18138 16.7168 8.45128 16.9867 8.7519 17.1112C9.15284 17.2773 9.60337 17.2773 10.0043 17.1112C10.305 16.9867 10.5746 16.7171 11.1137 16.178C11.6528 15.6389 11.9215 15.3693 12.0461 15.0686C12.2122 14.6677 12.2122 14.2172 12.0461 13.8162C11.9215 13.5155 11.6528 13.246 11.1137 12.7069C10.5746 12.1678 10.305 11.8982 10.0043 11.7737C9.60337 11.6076 9.15286 11.6076 8.75192 11.7737Z" stroke="var(--bg-gray)" stroke-width="1.25" stroke-linecap="round" stroke-linejoin="round"/>
</svg>
