<svg width="19" height="18" viewBox="0 0 19 18" fill="none" xmlns="http://www.w3.org/2000/svg">
<path d="M0.884634 7.52497C0.617204 7.27766 0.762472 6.83057 1.12419 6.78768L6.24961 6.17975C6.39703 6.16227 6.52509 6.06969 6.58727 5.93489L8.7491 1.24811C8.90167 0.917341 9.37189 0.917277 9.52446 1.24804L11.6863 5.93479C11.7485 6.0696 11.8757 6.16242 12.0231 6.1799L17.1488 6.78768C17.5105 6.83057 17.6554 7.27779 17.388 7.52511L13.599 11.0296C13.49 11.1304 13.4415 11.2805 13.4704 11.4261L14.476 16.4884C14.547 16.8457 14.1668 17.1225 13.8489 16.9446L9.34523 14.423C9.21569 14.3504 9.05831 14.3508 8.92877 14.4233L4.4246 16.9439C4.10675 17.1219 3.72582 16.8457 3.79681 16.4884L4.80255 11.4264C4.83148 11.2808 4.78307 11.1304 4.67408 11.0296L0.884634 7.52497Z" stroke="white" stroke-width="1.25" stroke-linecap="round" stroke-linejoin="round"/>
</svg>
