<svg width="19" height="17" viewBox="0 0 19 17" fill="none" xmlns="http://www.w3.org/2000/svg">
<path d="M16.1786 5.77324L15.8855 5.6102C15.84 5.58488 15.8177 5.57217 15.7957 5.559C15.5771 5.42809 15.3929 5.2472 15.2585 5.03079C15.2449 5.00902 15.2322 4.98618 15.2061 4.94105C15.1801 4.89598 15.1669 4.87314 15.1548 4.85053C15.0342 4.62538 14.969 4.37448 14.9651 4.1191C14.9647 4.09343 14.9648 4.0672 14.9657 4.01505L14.9714 3.67471C14.9806 3.13007 14.9851 2.85691 14.9086 2.61176C14.8406 2.39401 14.7269 2.19345 14.575 2.02324C14.4033 1.83085 14.1657 1.69359 13.6899 1.41942L13.2947 1.19168C12.8202 0.918274 12.5829 0.781525 12.331 0.729392C12.1082 0.68327 11.8782 0.685407 11.6562 0.735253C11.4056 0.791511 11.1712 0.931825 10.7028 1.21229L10.7002 1.21356L10.417 1.38312C10.3722 1.40993 10.3496 1.42344 10.3271 1.43592C10.1044 1.55974 9.8558 1.62821 9.60112 1.63638C9.57545 1.63721 9.54934 1.63721 9.49713 1.63721C9.44524 1.63721 9.41801 1.63721 9.3924 1.63638C9.13716 1.62817 8.88802 1.55934 8.66497 1.435C8.64249 1.42247 8.62025 1.40885 8.57538 1.38191L8.29041 1.21083C7.81881 0.927705 7.58265 0.78593 7.33066 0.729392C7.10771 0.679371 6.87696 0.677986 6.6533 0.724702C6.40076 0.77745 6.1634 0.915214 5.68867 1.19074L5.68655 1.19168L5.29627 1.4182L5.29195 1.42084C4.8215 1.69389 4.5857 1.83074 4.41546 2.02235C4.26439 2.19239 4.15148 2.39263 4.08389 2.60981C4.0075 2.85529 4.01157 3.12904 4.02078 3.67624L4.0265 4.0161C4.02736 4.06757 4.02886 4.09314 4.02849 4.11845C4.0247 4.37435 3.95861 4.62576 3.83767 4.85131C3.82571 4.87361 3.81283 4.89592 3.78709 4.94047C3.76134 4.98506 3.74886 5.00723 3.73551 5.02875C3.60048 5.24631 3.41543 5.42825 3.1955 5.5594C3.17374 5.57237 3.15081 5.58484 3.10577 5.60981L2.8164 5.77016C2.33496 6.03696 2.0943 6.17048 1.91918 6.36048C1.76426 6.52857 1.64723 6.72795 1.57579 6.94509C1.49504 7.19055 1.49511 7.46578 1.49636 8.01621L1.49738 8.46609C1.49862 9.01283 1.50032 9.28602 1.58126 9.52982C1.65286 9.7455 1.76903 9.9437 1.92309 10.1108C2.09721 10.2996 2.33549 10.4323 2.81328 10.6981L3.10006 10.8577C3.14887 10.8848 3.17343 10.8982 3.19696 10.9124C3.4149 11.0436 3.5985 11.2251 3.73238 11.4414C3.74685 11.4647 3.76073 11.489 3.7885 11.5375C3.81592 11.5854 3.82995 11.6094 3.84263 11.6334C3.96001 11.8556 4.02286 12.1025 4.02715 12.3538C4.02761 12.381 4.02721 12.4084 4.02628 12.4636L4.02078 12.7898C4.01151 13.3389 4.00747 13.6137 4.08431 13.8599C4.15229 14.0776 4.26592 14.2782 4.41781 14.4484C4.58949 14.6408 4.82751 14.778 5.30331 15.0521L5.69843 15.2798C6.17289 15.5532 6.41004 15.6898 6.66193 15.742C6.88477 15.7881 7.11487 15.7863 7.33691 15.7364C7.58787 15.6801 7.82301 15.5393 8.29275 15.258L8.57592 15.0885C8.62072 15.0617 8.6434 15.0482 8.66585 15.0357C8.88856 14.9119 9.13693 14.8431 9.39162 14.8349C9.41728 14.8341 9.44339 14.8341 9.4956 14.8341C9.54793 14.8341 9.57402 14.8341 9.59974 14.8349C9.85498 14.8431 10.1049 14.9122 10.3279 15.0365C10.3475 15.0475 10.3672 15.0593 10.4017 15.08L10.7028 15.2607C11.1744 15.5439 11.4101 15.6853 11.6621 15.7418C11.885 15.7918 12.116 15.7939 12.3396 15.7471C12.5921 15.6944 12.8299 15.5564 13.3044 15.281L13.7006 15.0511C14.1713 14.7779 14.4074 14.6409 14.5777 14.4492C14.7287 14.2791 14.8418 14.079 14.9094 13.8618C14.9852 13.6181 14.9807 13.3465 14.9716 12.8072L14.9657 12.4554C14.9648 12.404 14.9647 12.3784 14.9651 12.3531C14.9689 12.0972 15.0339 11.8456 15.1548 11.62C15.1667 11.5978 15.1797 11.5753 15.2054 11.5309C15.2311 11.4863 15.2445 11.4641 15.2578 11.4425C15.3928 11.225 15.5781 11.0429 15.798 10.9117C15.8195 10.8989 15.8416 10.8867 15.8856 10.8623L15.8871 10.8616L16.1765 10.7012C16.6579 10.4344 16.899 10.3008 17.0742 10.1108C17.2291 9.94269 17.346 9.74359 17.4174 9.52645C17.4977 9.28243 17.497 9.00879 17.4958 8.4648L17.4948 8.00527C17.4935 7.45852 17.4929 7.18537 17.4119 6.94157C17.3403 6.72589 17.2235 6.52768 17.0694 6.36061C16.8955 6.17194 16.6569 6.03921 16.18 5.77392L16.1786 5.77324Z" stroke="var(--bg-gray)" stroke-width="1.25" stroke-linecap="round" stroke-linejoin="round"/>
<path d="M6.2951 8.23583C6.2951 10.0038 7.72835 11.4371 9.49634 11.4371C11.2643 11.4371 12.6976 10.0038 12.6976 8.23583C12.6976 6.46783 11.2643 5.03458 9.49634 5.03458C7.72835 5.03458 6.2951 6.46783 6.2951 8.23583Z" stroke="var(--bg-gray)" stroke-width="1.25" stroke-linecap="round" stroke-linejoin="round"/>
</svg>
